<?xml version="1.0" encoding="UTF-8" standalone="no"?>
<!-- Created with Inkscape (http://www.inkscape.org/) -->

<svg
   width="35.406567"
   height="35.468628"
   viewBox="0 0 35.406567 35.468628"
   version="1.1"
   id="svg1"
   xml:space="preserve"
   xmlns="http://www.w3.org/2000/svg"
   xmlns:svg="http://www.w3.org/2000/svg"><defs
     id="defs1" /><g
     id="layer1"
     style="display:inline"
     transform="translate(-1241.3867,-1724.2912)"><path
       style="fill:#3366e8;fill-opacity:1;stroke-width:0.999996"
       d="m 1242.6005,1759.6045 c -0.598,-0.2705 -1.0831,-0.8921 -1.2054,-1.5448 -0.072,-0.3859 0.311,-2.1475 1.5235,-7.0005 1.4028,-5.6134 1.6633,-6.503 1.9377,-6.6202 0.1743,-0.074 3.3149,-0.4661 6.9788,-0.8704 4.1006,-0.4522 6.7495,-0.8075 6.8898,-0.9239 0.2939,-0.244 0.2939,-0.9643 0,-1.2083 -0.1409,-0.1168 -2.7892,-0.4717 -6.8898,-0.924 -3.6639,-0.4042 -6.8045,-0.7957 -6.9788,-0.8703 -0.2744,-0.1167 -0.5349,-1.0069 -1.9377,-6.6203 -1.231,-4.9271 -1.5966,-6.6112 -1.5216,-7.0114 0.1967,-1.0487 1.353,-1.89 2.3217,-1.6894 0.2204,0.045 6.8724,3.2449 14.7823,7.1093 7.91,3.8643 15.0772,7.3605 15.9267,7.7692 1.9067,0.917 2.3656,1.4682 2.3656,2.841 0,1.3728 -0.4589,1.9241 -2.3656,2.8411 -0.8495,0.4086 -8.0167,3.9068 -15.9267,7.7737 -7.9099,3.8669 -14.6189,7.0595 -14.9087,7.0951 -0.2901,0.035 -0.7362,-0.03 -0.9918,-0.1456 z"
       id="path184" /></g></svg>
