<?xml version="1.0" encoding="UTF-8" standalone="no"?>
<!-- Created with Inkscape (http://www.inkscape.org/) -->

<svg
   width="86.253387"
   height="86.253387"
   viewBox="0 0 86.253387 86.253387"
   version="1.1"
   id="svg1"
   xml:space="preserve"
   xmlns="http://www.w3.org/2000/svg"
   xmlns:svg="http://www.w3.org/2000/svg"><defs
     id="defs1" /><g
     id="layer1"
     style="display:inline"
     transform="translate(-967.97029,-2039.5259)"><g
       id="g108"><circle
         style="font-variation-settings:normal;vector-effect:none;fill:#1f43be;fill-opacity:1;stroke:#b8c3dd;stroke-width:2.5;stroke-linecap:butt;stroke-linejoin:round;stroke-miterlimit:4;stroke-dasharray:none;stroke-dashoffset:0;stroke-opacity:1;-inkscape-stroke:none;paint-order:markers stroke fill;stop-color:#000000"
         id="circle87"
         cx="1011.097"
         cy="2082.6526"
         r="41.876694" /><path
         style="fill:#ffffff;fill-opacity:1;stroke-width:0.901466"
         d="m 1009.5355,2109.5866 c -1.3501,-1.4193 -5.7739,-7.0238 -7.7864,-9.8647 -8.10259,-11.4375 -11.77401,-20.5663 -11.00455,-27.3612 0.33131,-2.9254 0.75297,-4.3984 1.99142,-6.9564 3.96198,-8.1833 12.85893,-12.7979 21.69633,-11.2537 6.6681,1.1653 12.0935,5.2335 15.0083,11.2537 3.3766,6.9744 2.7438,13.5988 -2.2256,23.2968 -2.679,5.2282 -6.4931,10.9604 -11.2105,16.8489 -3.5409,4.4197 -4.0221,4.8993 -4.9162,4.8993 -0.5632,0 -0.9214,-0.199 -1.5528,-0.8627 z m 4.6292,-25.4347 c 5.548,-1.7265 8.5819,-7.8432 6.5941,-13.2942 -0.6331,-1.7358 -1.828,-3.4478 -3.1284,-4.4822 -5.6307,-4.478 -13.7651,-2.2291 -16.2126,4.4822 -1.97447,5.4142 1.0265,11.5272 6.5213,13.2838 1.7235,0.5509 4.4742,0.5557 6.2256,0.01 z"
         id="path88" /></g></g></svg>
