<?xml version="1.0" encoding="UTF-8" standalone="no"?>
<!-- Created with Inkscape (http://www.inkscape.org/) -->

<svg
   width="86.253387"
   height="86.253387"
   viewBox="0 0 86.253387 86.253387"
   version="1.1"
   id="svg1"
   xml:space="preserve"
   xmlns="http://www.w3.org/2000/svg"
   xmlns:svg="http://www.w3.org/2000/svg"><defs
     id="defs1" /><g
     id="layer1"
     style="display:inline"
     transform="translate(-967.97029,-1818.7058)"><g
       id="g127"><circle
         style="font-variation-settings:normal;opacity:1;vector-effect:none;fill:#12255d;fill-opacity:1;stroke:#b8c3dd;stroke-width:2.5;stroke-linecap:butt;stroke-linejoin:round;stroke-miterlimit:4;stroke-dasharray:none;stroke-dashoffset:0;stroke-opacity:1;-inkscape-stroke:none;paint-order:markers stroke fill;stop-color:#000000;stop-opacity:1"
         id="circle132"
         cx="1011.097"
         cy="1861.8325"
         r="41.876694" /><path
         style="fill:#ffffff;fill-opacity:1;stroke-width:0.901466"
         d="m 1009.5355,1888.7664 c -1.3501,-1.4192 -5.7739,-7.0238 -7.7864,-9.8647 -8.10259,-11.4375 -11.77401,-20.5662 -11.00455,-27.3611 0.33131,-2.9254 0.75297,-4.3984 1.99142,-6.9564 3.96198,-8.1834 12.85893,-12.798 21.69633,-11.2537 6.6681,1.1652 12.0935,5.2335 15.0083,11.2537 3.3766,6.9744 2.7438,13.5988 -2.2256,23.2968 -2.679,5.2281 -6.4931,10.9604 -11.2105,16.8489 -3.5409,4.4196 -4.0221,4.8993 -4.9162,4.8993 -0.5632,0 -0.9214,-0.1991 -1.5528,-0.8628 z m 4.6292,-25.4347 c 5.548,-1.7265 8.5819,-7.8432 6.5941,-13.2942 -0.6331,-1.7358 -1.828,-3.4478 -3.1284,-4.4821 -5.6307,-4.4781 -13.7651,-2.2292 -16.2126,4.4821 -1.97447,5.4143 1.0265,11.5273 6.5213,13.2839 1.7235,0.5509 4.4742,0.5556 6.2256,0.01 z"
         id="path133" /></g></g></svg>
